<svg xmlns="http://www.w3.org/2000/svg" viewBox="0 0 24 24" width="24" height="24" role="img" aria-label="WhatsApp">
  <path fill="#25D366" d="M12.04 2C6.58 2 2.13 6.45 2.13 11.91c0 1.75.46 3.45 1.32 4.95L2 22l5.25-1.38a9.9 9.9 0 0 0 4.79 1.22h.01c5.46 0 9.9-4.45 9.9-9.91 0-2.65-1.03-5.14-2.9-7.01A9.82 9.82 0 0 0 12.04 2z"/>
  <path fill="#FFF" d="M9.07 7.2c-.18-.4-.37-.41-.54-.42l-.46-.01c-.16 0-.42.06-.64.3-.22.24-.84.82-.84 2s.86 2.32.98 2.48c.12.16 1.69 2.7 4.18 3.79.58.25 1.04.4 1.4.51.59.19 1.12.16 1.54.1.47-.07 1.45-.59 1.65-1.16.2-.57.2-1.06.14-1.16-.06-.1-.22-.16-.46-.28-.24-.12-1.45-.72-1.67-.8-.22-.08-.39-.12-.55.12-.16.24-.63.8-.77.96-.14.16-.28.18-.52.06-.24-.12-1.03-.38-1.96-1.21-.72-.65-1.21-1.45-1.35-1.69-.14-.24-.02-.37.1-.49.11-.11.24-.28.36-.42.12-.14.16-.24.24-.4.08-.16.04-.3-.02-.42-.06-.12-.54-1.34-.76-1.84z"/>
</svg>
